<svg xmlns="http://www.w3.org/2000/svg" viewBox="0 0 100 100"><path d="M24.728 42.603V22.426a3.322 3.322 0 0 1 3.317-3.318h6.128a2.81 2.81 0 1 0 0-5.62h-6.128c-4.928 0-8.938 4.01-8.938 8.938v20.178a.25.25 0 0 1-.074.179l-4.364 4.364a4.039 4.039 0 0 0 0 5.707l4.364 4.364a.252.252 0 0 1 .074.179v20.178c0 4.928 4.01 8.938 8.938 8.938h6.128a2.81 2.81 0 1 0 0-5.62h-6.128a3.32 3.32 0 0 1-3.317-3.317V57.397a5.836 5.836 0 0 0-1.721-4.154L19.764 50l3.243-3.243a5.836 5.836 0 0 0 1.721-4.154zm60.602 4.543-4.364-4.364a.25.25 0 0 1-.074-.179V22.426c0-4.928-4.01-8.938-8.938-8.938h-6.128a2.81 2.81 0 1 0 0 5.62h6.128a3.322 3.322 0 0 1 3.318 3.318v20.178c0 1.569.611 3.044 1.72 4.153L80.236 50l-3.243 3.243a5.835 5.835 0 0 0-1.72 4.154v20.178a3.321 3.321 0 0 1-3.318 3.317h-6.128a2.81 2.81 0 1 0 0 5.62h6.128c4.928 0 8.938-4.01 8.938-8.938V57.397c0-.068.026-.132.074-.179l4.364-4.364a4.041 4.041 0 0 0-.001-5.708zM50.383 29.38c-3.178 0-5.683 2.506-5.683 5.745 0 3.178 2.506 5.684 5.683 5.684 3.24 0 5.745-2.506 5.745-5.684 0-3.239-2.506-5.745-5.745-5.745zm-4.951 26.748v9.351h4.462v.978c0 2.75-1.1 3.423-3.178 3.423v3.972c10.084 0 10.696-10.206 7.334-17.724h-8.618z"/></svg>